<svg width="32" height="32" viewBox="0 0 32 32" fill="none" xmlns="http://www.w3.org/2000/svg">
<path d="M28 4C28.3536 4 28.6927 4.14048 28.9428 4.39052C29.1928 4.64057 29.3333 4.97971 29.3333 5.33333V12.6667C28.4492 12.6667 27.6014 13.0179 26.9763 13.643C26.3511 14.2681 26 15.1159 26 16C26 16.8841 26.3511 17.7319 26.9763 18.357C27.6014 18.9821 28.4492 19.3333 29.3333 19.3333V26.6667C29.3333 27.0203 29.1928 27.3594 28.9428 27.6095C28.6927 27.8595 28.3536 28 28 28H3.99996C3.64634 28 3.3072 27.8595 3.05715 27.6095C2.8071 27.3594 2.66663 27.0203 2.66663 26.6667V19.3333C3.55068 19.3333 4.39853 18.9821 5.02365 18.357C5.64877 17.7319 5.99996 16.8841 5.99996 16C5.99996 15.1159 5.64877 14.2681 5.02365 13.643C4.39853 13.0179 3.55068 12.6667 2.66663 12.6667V5.33333C2.66663 4.97971 2.8071 4.64057 3.05715 4.39052C3.3072 4.14048 3.64634 4 3.99996 4H28ZM21.3333 12H10.6666V20H21.3333V12Z" fill="#0059F7"/>
</svg>
