<svg width="119" height="31" viewBox="0 0 119 31" fill="none" xmlns="http://www.w3.org/2000/svg">
<g clip-path="url(#clip0_7_152)">
<path d="M38.1134 24.2874L39.5949 20.7724C41.1959 21.9929 43.3226 22.6276 45.4255 22.6276C46.9787 22.6276 47.9584 22.0173 47.9584 21.0898C47.9345 18.5024 38.663 20.5283 38.5913 14.0354C38.5674 10.7402 41.4349 8.20157 45.4971 8.20157C47.9106 8.20157 50.324 8.8118 52.0445 10.2031L50.6586 13.7913C49.0815 12.7661 47.122 12.0339 45.2582 12.0339C43.9917 12.0339 43.1554 12.6441 43.1554 13.4252C43.1793 15.9638 52.5224 14.5724 52.618 20.7724C52.618 24.1409 49.8222 26.5087 45.8078 26.5087C42.8686 26.5087 40.1684 25.8008 38.1134 24.2874ZM94.961 19.5031C94.2202 20.8213 92.8343 21.7244 91.2333 21.7244C88.8676 21.7244 86.956 19.7716 86.956 17.3551C86.956 14.9386 88.8676 12.9858 91.2333 12.9858C92.8343 12.9858 94.2202 13.889 94.961 15.2071L99.0471 12.8882C97.5178 10.1055 94.5787 8.20157 91.2333 8.20157C86.2869 8.20157 82.2724 12.3024 82.2724 17.3551C82.2724 22.4079 86.2869 26.5087 91.2333 26.5087C94.6025 26.5087 97.5178 24.6291 99.0471 21.822L94.961 19.5031ZM54.673 0.610229H59.7867V26.1669H54.673V0.610229ZM101.054 0.610229V26.1669H106.168V18.5024L112.237 26.1669H118.785L111.067 17.0622L118.211 8.56771H111.951L106.168 15.622V0.610229H101.054ZM74.9843 19.552C74.2435 20.7968 72.7142 21.7244 70.9937 21.7244C68.6281 21.7244 66.7164 19.7716 66.7164 17.3551C66.7164 14.9386 68.6281 12.9858 70.9937 12.9858C72.7142 12.9858 74.2435 13.9622 74.9843 15.2315V19.552ZM74.9843 8.56771V10.6425C74.1479 9.20235 72.069 8.20157 69.8945 8.20157C65.4022 8.20157 61.8656 12.2535 61.8656 17.3307C61.8656 22.4079 65.4022 26.5087 69.8945 26.5087C72.069 26.5087 74.1479 25.5079 74.9843 24.0677V26.1425H80.0979V8.56771H74.9843Z" fill="#4E5A85"/>
<path d="M6.49984 19.3804C6.49984 21.1623 5.09 22.6024 3.34562 22.6024C1.60125 22.6024 0.191406 21.1623 0.191406 19.3804C0.191406 17.5985 1.60125 16.1583 3.34562 16.1583H6.49984V19.3804ZM8.07695 19.3804C8.07695 17.5985 9.48679 16.1583 11.2312 16.1583C12.9755 16.1583 14.3854 17.5985 14.3854 19.3804V27.4355C14.3854 29.2174 12.9755 30.6575 11.2312 30.6575C9.48679 30.6575 8.07695 29.2174 8.07695 27.4355V19.3804Z" fill="#4E5A85"/>
<path d="M11.2309 6.44373C9.48651 6.44373 8.07667 5.00357 8.07667 3.22168C8.07667 1.43979 9.48651 -0.000366211 11.2309 -0.000366211C12.9753 -0.000366211 14.3851 1.43979 14.3851 3.22168V6.44373H11.2309ZM11.2309 8.07916C12.9753 8.07916 14.3851 9.51932 14.3851 11.3012C14.3851 13.0831 12.9753 14.5233 11.2309 14.5233H3.32145C1.57708 14.5233 0.167236 13.0831 0.167236 11.3012C0.167236 9.51932 1.57708 8.07916 3.32145 8.07916H11.2309Z" fill="#4E5A85"/>
<path d="M23.8716 11.4479C23.8716 9.66605 25.2815 8.22589 27.0258 8.22589C28.7702 8.22589 30.1801 9.66605 30.1801 11.4479C30.1801 13.2298 28.7702 14.67 27.0258 14.67H23.8716V11.4479ZM22.2945 11.4479C22.2945 13.2298 20.8847 14.67 19.1403 14.67C17.3959 14.67 15.9861 13.2298 15.9861 11.4479V3.36841C15.9861 1.58652 17.3959 0.146362 19.1403 0.146362C20.8847 0.146362 22.2945 1.58652 22.2945 3.36841V11.4479Z" fill="#4E5A85"/>
<path d="M19.1403 24.2134C20.8847 24.2134 22.2945 25.6536 22.2945 27.4355C22.2945 29.2174 20.8847 30.6575 19.1403 30.6575C17.3959 30.6575 15.9861 29.2174 15.9861 27.4355V24.2134H19.1403ZM19.1403 22.6024C17.3959 22.6024 15.9861 21.1623 15.9861 19.3804C15.9861 17.5985 17.3959 16.1583 19.1403 16.1583H27.0497C28.7941 16.1583 30.2039 17.5985 30.2039 19.3804C30.2039 21.1623 28.7941 22.6024 27.0497 22.6024H19.1403Z" fill="#4E5A85"/>
</g>
<defs>
<clipPath id="clip0_7_152">
<rect width="119" height="31" fill="white"/>
</clipPath>
</defs>
</svg>
